<svg width="523" height="145" viewBox="0 0 523 145" fill="none" xmlns="http://www.w3.org/2000/svg">
<path d="M518 3.5L523 5.88675V0.113249L518 2.5V3.5ZM22.5621 3V2.49989L22.5519 2.50011L22.5621 3ZM1.0019 22.619L0.503569 22.5782L0.501897 22.5985L0.501897 22.619L1.0019 22.619ZM1 121.865L0.5 121.865L0.5 121.882L0.501212 121.899L1 121.865ZM22.5603 142L22.5575 142.5H22.5603V142ZM187.437 142L182.437 139.113V144.887L187.437 142ZM518.5 2.5H22.5621V3.5H518.5V2.5ZM22.5519 2.50011C14.4341 2.66694 9.17128 3.95239 5.809 7.14413C2.44644 10.3361 1.09797 15.3284 0.503569 22.5782L1.50022 22.6599C2.0925 15.4361 3.42578 10.7853 6.49747 7.86939C9.56945 4.95323 14.4934 3.66593 22.5724 3.49989L22.5519 2.50011ZM0.501897 22.619L0.5 121.865L1.5 121.865L1.5019 22.619L0.501897 22.619ZM0.501212 121.899C1.09537 130.419 2.84766 135.615 6.42975 138.654C9.99915 141.683 15.2649 142.46 22.5575 142.5L22.563 141.5C15.2657 141.46 10.3437 140.664 7.07671 137.892C3.82237 135.131 2.0895 130.3 1.49879 121.83L0.501212 121.899ZM22.5603 142.5H182.937V141.5H22.5603V142.5Z" fill="#CE3131"/>
</svg>
