<svg width="531" height="82" viewBox="0 0 531 82" fill="none" xmlns="http://www.w3.org/2000/svg">
<path d="M526 3.5L531 5.88675V0.113249L526 2.5V3.5ZM22.5642 3V2.49988L22.5531 2.50012L22.5642 3ZM1 24.2353L0.501429 24.1975L0.5 24.2164V24.2353H1ZM1 57.2059H0.5V57.222L0.501035 57.238L1 57.2059ZM22.5642 79L22.5612 79.5H22.5642V79ZM38.3779 79L33.3779 76.1132V81.8868L38.3779 79ZM526.5 2.5H22.5642V3.5H526.5V2.5ZM22.5531 2.50012C14.4274 2.68084 9.15686 4.07464 5.79401 7.52928C2.44143 10.9734 1.09544 16.3572 0.501429 24.1975L1.49857 24.2731C2.09146 16.4475 3.42771 11.3938 6.51057 8.2268C9.58316 5.07035 14.5013 3.67945 22.5753 3.49988L22.5531 2.50012ZM0.5 24.2353V57.2059H1.5V24.2353H0.5ZM0.501035 57.238C1.09469 66.4495 2.84367 72.0541 6.41612 75.3343C9.98813 78.6141 15.2632 79.4566 22.5612 79.5L22.5672 78.5C15.2726 78.4566 10.3581 77.5962 7.09245 74.5977C3.82722 71.5996 2.09039 66.3506 1.49896 57.1737L0.501035 57.238ZM22.5642 79.5H33.8779V78.5H22.5642V79.5Z" fill="#CE3131"/>
</svg>
