<svg width="862" height="198" viewBox="0 0 862 198" fill="none" xmlns="http://www.w3.org/2000/svg">
<path d="M5.00001 3.5L8.34465e-06 5.88675V0.113249L5.00001 2.5V3.5ZM831.758 3V2.5H831.77L831.781 2.50052L831.758 3ZM831.758 195L831.765 195.5H831.758V195ZM631.635 195L636.635 192.113V197.887L631.635 195ZM4.50001 2.5H831.758V3.5H4.50001V2.5ZM831.781 2.50052C837.254 2.75079 841.866 2.87728 845.671 3.46339C849.486 4.05092 852.566 5.10957 854.953 7.27648C857.341 9.44443 858.971 12.6646 860.009 17.4463C861.045 22.2244 861.5 28.609 861.5 37.1595H860.5C860.5 28.6303 860.045 22.3307 859.032 17.6583C858.019 12.9897 856.458 9.99325 854.281 8.01684C852.103 6.03939 849.246 5.02586 845.519 4.45173C841.782 3.87618 837.247 3.75152 831.736 3.49948L831.781 2.50052ZM861.5 37.1595V150.239H860.5V37.1595H861.5ZM861.5 150.239C861.5 169.384 859.145 180.668 854.198 187.187C849.212 193.758 841.688 195.379 831.765 195.5L831.752 194.5C841.617 194.379 848.713 192.761 853.401 186.583C858.129 180.352 860.5 169.377 860.5 150.239H861.5ZM831.758 195.5H636.135V194.5H831.758V195.5Z" fill="#CE3131"/>
</svg>
