<svg width="608" height="60" viewBox="0 0 608 60" fill="none" xmlns="http://www.w3.org/2000/svg">
<path d="M5.00002 3.5L1.85966e-05 5.88675V0.113249L5.00002 2.5V3.5ZM586.385 3V2.49992L586.394 2.50008L586.385 3ZM607 19.1575L607.498 19.1101L607.5 19.1337V19.1575H607ZM607 40.4173H607.5V40.4375L607.498 40.4577L607 40.4173ZM586.385 57L586.387 57.5H586.385V57ZM556.149 57L561.149 54.1132V59.8868L556.149 57ZM4.50002 2.5H586.385V3.5H4.50002V2.5ZM586.394 2.50008C594.147 2.63732 599.173 3.69307 602.391 6.32452C605.631 8.97374 606.928 13.1238 607.498 19.1101L606.502 19.2049C605.937 13.2713 604.67 9.4797 601.758 7.09868C598.824 4.69988 594.11 3.63682 586.376 3.49992L586.394 2.50008ZM607.5 19.1575V40.4173H606.5V19.1575H607.5ZM607.498 40.4577C606.929 47.4952 605.243 51.8137 601.794 54.3343C598.381 56.8287 593.355 57.467 586.387 57.5L586.383 56.5C593.365 56.467 598.081 55.8096 601.204 53.5269C604.291 51.2706 605.939 47.3307 606.502 40.377L607.498 40.4577ZM586.385 57.5H560.649V56.5H586.385V57.5Z" fill="#CE3131"/>
</svg>
